<?xml version="1.0" encoding="UTF-8" standalone="no"?>
<!DOCTYPE svg PUBLIC "-//W3C//DTD SVG 1.1//EN" "http://www.w3.org/Graphics/SVG/1.1/DTD/svg11.dtd">
<svg width="100%" height="100%" viewBox="0 0 511 511" version="1.1" xmlns="http://www.w3.org/2000/svg" xmlns:xlink="http://www.w3.org/1999/xlink" xml:space="preserve" xmlns:serif="http://www.serif.com/" style="fill-rule:evenodd;clip-rule:evenodd;stroke-linejoin:round;stroke-miterlimit:2;">
    <g transform="matrix(1,0,0,1,-126,-104.53112)">
        <g transform="matrix(1.070621,0,0,1.460446,117.768362,92.008114)">
            <g transform="matrix(0.934037,0,0,0.684722,-110,-63)">
                <path d="M636.938,104.531L636.938,615.469L126,615.469L126,104.531L636.938,104.531ZM383.794,162.031C274.304,162.031 185.413,244.337 185.413,360.412C185.413,469.901 275.128,557.969 384.617,557.969C494.106,557.969 577.525,469.901 577.525,360.412C577.525,250.922 493.283,162.031 383.794,162.031ZM383.794,208.434C464.038,208.434 522.6,268.643 522.6,360.412C522.6,452.18 464.038,509.096 383.794,509.096C295.318,509.096 241.694,440.656 241.694,360.412C241.694,270.29 303.55,208.434 383.794,208.434Z" style="fill:white;"/>
            </g>
        </g>
    </g>
</svg>
