<?xml version="1.0" encoding="UTF-8" standalone="no"?><!DOCTYPE svg PUBLIC "-//W3C//DTD SVG 1.1//EN" "http://www.w3.org/Graphics/SVG/1.1/DTD/svg11.dtd"><svg width="100%" height="100%" viewBox="0 0 239 329" version="1.1" xmlns="http://www.w3.org/2000/svg" xmlns:xlink="http://www.w3.org/1999/xlink" xml:space="preserve" xmlns:serif="http://www.serif.com/" style="fill-rule:evenodd;clip-rule:evenodd;stroke-linecap:round;stroke-linejoin:round;stroke-miterlimit:1.5;"><g id="Eddy_Dark"><path d="M112.09,159.448c-11.142,0.112 -21.806,30.059 -21.575,30.136c0,0 -12.123,14.097 -2.099,18.497c10.024,4.4 17.253,7.607 21.97,9.081c4.717,1.474 9.717,-4.412 15.909,-5.909c6.191,-1.497 9.771,-2.877 11.534,-6.732c1.762,-3.855 -3.716,-10.319 -9.612,-15.921c-5.896,-5.602 -6.078,-28.603 -16.127,-29.152Z" style="fill:none;stroke:#302c2e;stroke-width:2.76px;"/><path d="M124.311,43.18c87.408,0.287 106.644,29.571 103.108,116.604c-0.536,13.195 -3.571,54.286 -10.492,63.577c-2.832,19.833 -10.256,41.893 -21.924,55.986c-19.131,23.108 -45.658,40.651 -81.489,42.388c-52.584,2.548 -113.708,-68.592 -99.814,-127.464c2.552,-10.812 -9.233,-20.772 -9.233,-31.248c0,-98.022 32.476,-120.13 119.844,-119.843Z" style="fill:none;stroke:#302c2e;stroke-width:7.12px;"/><path d="M4.467,127.934c9.177,20.514 8.638,-0 15.116,-4.319c6.478,-4.318 12.416,-28.071 17.814,-39.948c5.399,-11.876 16.195,-9.177 21.054,-18.894c4.858,-9.717 16.735,-19.434 29.691,-12.416c12.956,7.018 48.045,5.938 58.302,3.239c10.257,-2.699 64.78,3.239 56.683,59.922c9.717,17.274 13.495,20.513 12.956,32.93c-0.54,12.416 14.575,1.619 19.974,-3.779c6.478,-6.478 -2.16,-68.019 -17.815,-77.736c-1.62,-17.275 -15.655,-59.382 -64.24,-64.781c-48.586,-5.398 -50.205,3.779 -72.878,12.956c-18.894,4.319 -32.93,8.098 -38.328,13.496c-5.399,5.399 -3.779,10.797 -3.779,10.797c-0,-0 -9.717,6.478 -12.956,12.956c-3.239,6.478 4.858,5.398 4.318,10.257c-8.097,6.478 -29.151,44.266 -25.912,65.32Z" style="fill:#302c2e;"/><path d="M23.406,144.669l-17.032,-17.967l0.89,12.357l16.142,22.112c-0,-0 3.98,3.758 4.643,7.517c0.663,3.759 0.663,15.258 12.161,17.911c11.498,2.653 34.495,4.422 34.495,4.422c-0,0 13.488,-0.442 18.794,-6.633c5.307,-6.192 11.277,-26.092 14.594,-25.208c3.317,0.885 9.066,-0.884 9.95,1.991c0.885,2.874 1.99,18.573 11.056,25.428c9.066,6.855 30.735,7.739 43.118,5.97c12.382,-1.769 20.343,-3.538 22.996,-17.468c2.653,-13.93 6.855,-10.835 9.287,-12.383c3.096,0 13.267,-2.653 18.574,-7.297c5.307,-4.643 3.98,-13.267 3.98,-13.267l-11.719,7.74l-13.267,1.326c-0,0 -19.901,-7.739 -78.276,-3.316c-6.412,0.884 -14.593,1.99 -24.765,-0c-10.171,-1.991 -29.85,-5.971 -38.695,-5.75c-8.845,0.222 -36.926,2.515 -36.926,2.515Zm98.396,16.059c0,0 -3.316,-10.392 15.7,-11.277c19.016,-0.884 34.052,-1.105 40.685,0c6.634,1.106 15.257,2.875 14.373,15.7c-0.885,12.824 -1.99,19.525 -8.182,22.366c-6.191,2.841 -39.358,4.013 -48.645,-0c-9.287,-4.014 -13.71,-17.723 -13.931,-26.789Zm-90.436,-6.541c-0,-0 0.884,-8.274 15.478,-7.831c14.594,0.442 28.745,-2.211 42.675,2.653c12.162,5.307 11.498,8.403 9.951,18.574c-5.971,11.056 -7.739,17.247 -16.584,19.016c-8.845,1.769 -37.811,1.327 -44.223,-4.422c-6.413,-5.749 -7.297,-5.344 -7.297,-27.99Z" style="fill:#302c2e;"/><path d="M17.249,236.211l32.25,21.581c0,-0 -0.262,-27.144 5.716,-31.31c7.783,-5.425 37.265,-11.027 44.577,-10.791c4.073,0.132 2.813,10.154 -0.708,12.206c-5.867,3.42 -28.745,2.535 -34.494,8.314c-5.749,5.778 -2.093,19.812 0,26.357c1.829,5.719 7.813,10.761 12.56,12.913c4.746,2.152 13.001,1.061 15.92,0c2.056,-0.748 -0.561,-5.977 1.592,-6.368c5.838,-1.061 27.153,-1.563 33.433,-0c3.329,0.828 0.84,9.793 4.245,9.375c4.806,-0.589 20.343,-5.867 24.588,-12.913c4.246,-7.046 6.714,-23.084 0.885,-29.364c-5.829,-6.28 -30.579,-4.452 -35.856,-8.314c-4.153,-3.039 -1.97,-10.347 1.588,-11.35c3.559,-1.002 33.383,3.301 37.983,6.397c4.599,3.095 8.373,11.704 9.375,17.512c1.001,5.801 -3.361,17.336 -3.361,17.336l46.502,-19.686c-0,0 9.396,74.833 -94.943,89.569c-77.759,10.981 -102.059,-52.636 -101.852,-91.464Z" style="fill:#302c2e;"/><path d="M40.56,141.923c3.521,-4.802 13.487,-8.412 24.003,-9.797c9.146,-1.203 18.758,-0.608 24.732,3.155c2.2,1.231 4.986,0.443 6.217,-1.757c1.231,-2.201 0.444,-4.987 -1.757,-6.218c-7.709,-3.798 -19.401,-3.896 -30.321,-1.28c-11.631,2.787 -22.222,8.305 -25.608,14.103c-0.495,0.754 -0.284,1.769 0.47,2.264c0.755,0.495 1.769,0.284 2.264,-0.47Z" style="fill:#302c2e;"/><path d="M191.607,145.217c-3.116,-6.73 -13.647,-12.88 -25.402,-15.688c-10.961,-2.619 -22.812,-2.014 -30.949,2.942c-2.084,1.42 -2.623,4.264 -1.203,6.348c1.42,2.084 4.264,2.623 6.348,1.203c6.118,-4.642 15.667,-5.594 24.672,-4.394c10.481,1.397 20.329,5.532 23.641,11.112c0.42,0.799 1.41,1.106 2.208,0.685c0.798,-0.42 1.105,-1.41 0.685,-2.208Z" style="fill:#302c2e;"/><path d="M52.595,156.657c-0,-0 16.274,-18.751 41.039,1.061c-15.567,5.13 -23.704,9.906 -41.039,-1.061Z" style="fill:none;"/><clipPath id="_clip1"><path d="M52.595,156.657c-0,-0 16.274,-18.751 41.039,1.061c-15.567,5.13 -23.704,9.906 -41.039,-1.061Z"/></clipPath><g clip-path="url(#_clip1)"><path d="M73.669,146.694c4.899,0 8.876,3.977 8.876,8.876c-0,4.899 -3.977,8.876 -8.876,8.876c-4.899,-0 -8.876,-3.977 -8.876,-8.876c0,-4.899 3.977,-8.876 8.876,-8.876Zm-0,5.842c1.674,-0 3.034,1.359 3.034,3.034c-0,1.674 -1.36,3.034 -3.034,3.034c-1.675,-0 -3.034,-1.36 -3.034,-3.034c-0,-1.675 1.359,-3.034 3.034,-3.034Z" style="fill:#302c2e;"/></g><path d="M52.595,156.657c-0,-0 16.274,-18.751 41.039,1.061c-15.567,5.13 -23.704,9.906 -41.039,-1.061Z" style="fill:none;stroke:#302c2e;stroke-width:1.08px;"/><path d="M178.154,161.698c-0,-0 -13.417,-18.893 -41.086,-3.393c14.519,7.604 22.191,11.381 41.086,3.393Z" style="fill:none;"/><clipPath id="_clip2"><path d="M178.154,161.698c-0,-0 -13.417,-18.893 -41.086,-3.393c14.519,7.604 22.191,11.381 41.086,3.393Z"/></clipPath><g clip-path="url(#_clip2)"><path d="M158.848,149.841c-4.832,-0.8 -9.406,2.474 -10.206,7.307c-0.8,4.833 2.474,9.406 7.306,10.206c4.833,0.801 9.407,-2.473 10.207,-7.306c0.8,-4.833 -2.474,-9.406 -7.307,-10.207Zm-0.954,5.764c-1.652,-0.274 -3.215,0.845 -3.489,2.497c-0.273,1.652 0.846,3.216 2.498,3.489c1.652,0.274 3.215,-0.845 3.489,-2.497c0.273,-1.653 -0.846,-3.216 -2.498,-3.489Z" style="fill:#302c2e;"/></g><path d="M178.154,161.698c-0,-0 -13.417,-18.893 -41.086,-3.393c14.519,7.604 22.191,11.381 41.086,3.393Z" style="fill:none;stroke:#302c2e;stroke-width:1.08px;"/><path d="M127.43,187.709c-0,0 -9.996,9.379 -5.279,16.812" style="fill:none;stroke:#302c2e;stroke-width:2.76px;"/><path d="M70.659,239.644c0,0 16.303,20.982 40.756,19.925c24.454,-1.056 35.171,-9.509 44.228,-19.321c-25.257,7.404 -32.781,22.194 -84.984,-0.604Z" style="fill:#302c2e;"/><path d="M70.659,239.644c0,0 16.733,-9.558 25.911,-7.867c9.178,1.69 9.057,3.251 15.94,3.371c6.883,0.121 34.094,-1.681 42.283,3.874c-4.968,-0.347 -25.98,1.657 -42.283,2.657c-16.89,1.036 -7.366,-5.917 -26.567,-2.657c-18.959,2.174 -10.28,4.143 -15.284,0.622Z" style="fill:#302c2e;"/></g></svg>